<svg xmlns="http://www.w3.org/2000/svg" xmlns:xlink="http://www.w3.org/1999/xlink" width="512" zoomAndPan="magnify" viewBox="0 0 384 383.999986" height="512" preserveAspectRatio="xMidYMid meet" version="1.0"><defs><clipPath id="03ed4c9ada"><path d="M 144.046875 144.046875 L 239.953125 144.046875 L 239.953125 239.953125 L 144.046875 239.953125 Z M 144.046875 144.046875 " clip-rule="nonzero"/></clipPath><clipPath id="baace423bc"><path d="M 192 144.046875 C 165.515625 144.046875 144.046875 165.515625 144.046875 192 C 144.046875 218.484375 165.515625 239.953125 192 239.953125 C 218.484375 239.953125 239.953125 218.484375 239.953125 192 C 239.953125 165.515625 218.484375 144.046875 192 144.046875 Z M 192 144.046875 " clip-rule="nonzero"/></clipPath><clipPath id="ef92fad654"><path d="M 0.046875 0.046875 L 95.953125 0.046875 L 95.953125 95.953125 L 0.046875 95.953125 Z M 0.046875 0.046875 " clip-rule="nonzero"/></clipPath><clipPath id="3c683c623d"><path d="M 48 0.046875 C 21.515625 0.046875 0.046875 21.515625 0.046875 48 C 0.046875 74.484375 21.515625 95.953125 48 95.953125 C 74.484375 95.953125 95.953125 74.484375 95.953125 48 C 95.953125 21.515625 74.484375 0.046875 48 0.046875 Z M 48 0.046875 " clip-rule="nonzero"/></clipPath><clipPath id="99bf6bbcf1"><rect x="0" width="96" y="0" height="96"/></clipPath></defs><g clip-path="url(#03ed4c9ada)"><g clip-path="url(#baace423bc)"><g transform="matrix(1, 0, 0, 1, 144, 144)"><g clip-path="url(#99bf6bbcf1)"><g clip-path="url(#ef92fad654)"><g clip-path="url(#3c683c623d)"><path fill="#3f3f46" d="M 0.046875 0.046875 L 95.953125 0.046875 L 95.953125 95.953125 L 0.046875 95.953125 Z M 0.046875 0.046875 " fill-opacity="1" fill-rule="nonzero"/></g></g></g></g></g></g></svg>